<svg width="187" height="32" viewBox="0 0 187 32" fill="none" xmlns="http://www.w3.org/2000/svg">
<path d="M22.12 11.2C21.4 9.81333 20.4 8.77333 19.12 8.08C17.84 7.36 16.36 7 14.68 7C12.84 7 11.2 7.41333 9.76 8.24C8.32 9.06667 7.18667 10.24 6.36 11.76C5.56 13.28 5.16 15.04 5.16 17.04C5.16 19.04 5.56 20.8133 6.36 22.36C7.18667 23.88 8.32 25.0533 9.76 25.88C11.2 26.7067 12.84 27.12 14.68 27.12C17.16 27.12 19.1733 26.4267 20.72 25.04C22.2667 23.6533 23.2133 21.7733 23.56 19.4H13.12V15.76H28.44V19.32C28.1467 21.48 27.3733 23.4667 26.12 25.28C24.8933 27.0933 23.28 28.5467 21.28 29.64C19.3067 30.7067 17.1067 31.24 14.68 31.24C12.0667 31.24 9.68 30.64 7.52 29.44C5.36 28.2133 3.64 26.52 2.36 24.36C1.10667 22.2 0.48 19.76 0.48 17.04C0.48 14.32 1.10667 11.88 2.36 9.72C3.64 7.56 5.36 5.88 7.52 4.68C9.70667 3.45333 12.0933 2.84 14.68 2.84C17.64 2.84 20.2667 3.57333 22.56 5.04C24.88 6.48 26.56 8.53333 27.6 11.2H22.12ZM37.4975 12.16C38.1642 11.04 39.0442 10.1733 40.1375 9.56C41.2575 8.92 42.5775 8.6 44.0975 8.6V13.32H42.9375C41.1508 13.32 39.7908 13.7733 38.8575 14.68C37.9508 15.5867 37.4975 17.16 37.4975 19.4V31H32.9375V8.96H37.4975V12.16ZM68.4891 19.44C68.4891 20.2667 68.4357 21.0133 68.3291 21.68H51.4891C51.6224 23.44 52.2757 24.8533 53.4491 25.92C54.6224 26.9867 56.0624 27.52 57.7691 27.52C60.2224 27.52 61.9557 26.4933 62.9691 24.44H67.8891C67.2224 26.4667 66.0091 28.1333 64.2491 29.44C62.5157 30.72 60.3557 31.36 57.7691 31.36C55.6624 31.36 53.7691 30.8933 52.0891 29.96C50.4357 29 49.1291 27.6667 48.1691 25.96C47.2357 24.2267 46.7691 22.2267 46.7691 19.96C46.7691 17.6933 47.2224 15.7067 48.1291 14C49.0624 12.2667 50.3557 10.9333 52.0091 10C53.6891 9.06667 55.6091 8.6 57.7691 8.6C59.8491 8.6 61.7024 9.05333 63.3291 9.96C64.9557 10.8667 66.2224 12.1467 67.1291 13.8C68.0357 15.4267 68.4891 17.3067 68.4891 19.44ZM63.7291 18C63.7024 16.32 63.1024 14.9733 61.9291 13.96C60.7557 12.9467 59.3024 12.44 57.5691 12.44C55.9957 12.44 54.6491 12.9467 53.5291 13.96C52.4091 14.9467 51.7424 16.2933 51.5291 18H63.7291ZM93.1766 19.44C93.1766 20.2667 93.1232 21.0133 93.0166 21.68H76.1766C76.3099 23.44 76.9632 24.8533 78.1366 25.92C79.3099 26.9867 80.7499 27.52 82.4566 27.52C84.9099 27.52 86.6432 26.4933 87.6566 24.44H92.5766C91.9099 26.4667 90.6966 28.1333 88.9366 29.44C87.2032 30.72 85.0432 31.36 82.4566 31.36C80.3499 31.36 78.4566 30.8933 76.7766 29.96C75.1232 29 73.8166 27.6667 72.8566 25.96C71.9232 24.2267 71.4566 22.2267 71.4566 19.96C71.4566 17.6933 71.9099 15.7067 72.8166 14C73.7499 12.2667 75.0432 10.9333 76.6966 10C78.3766 9.06667 80.2966 8.6 82.4566 8.6C84.5366 8.6 86.3899 9.05333 88.0166 9.96C89.6432 10.8667 90.9099 12.1467 91.8166 13.8C92.7232 15.4267 93.1766 17.3067 93.1766 19.44ZM88.4166 18C88.3899 16.32 87.7899 14.9733 86.6166 13.96C85.4432 12.9467 83.9899 12.44 82.2566 12.44C80.6832 12.44 79.3366 12.9467 78.2166 13.96C77.0966 14.9467 76.4299 16.2933 76.2166 18H88.4166ZM108.784 8.6C110.517 8.6 112.064 8.96 113.424 9.68C114.811 10.4 115.891 11.4667 116.664 12.88C117.437 14.2933 117.824 16 117.824 18V31H113.304V18.68C113.304 16.7067 112.811 15.2 111.824 14.16C110.837 13.0933 109.491 12.56 107.784 12.56C106.077 12.56 104.717 13.0933 103.704 14.16C102.717 15.2 102.224 16.7067 102.224 18.68V31H97.6641V8.96H102.224V11.48C102.971 10.5733 103.917 9.86667 105.064 9.36C106.237 8.85333 107.477 8.6 108.784 8.6Z" fill="white"/>
<path d="M152.921 3.2V31H148.361V11.96L139.881 31H136.721L128.201 11.96V31H123.641V3.2H128.561L138.321 25L148.041 3.2H152.921ZM161.234 6.04C160.407 6.04 159.714 5.76 159.154 5.2C158.594 4.64 158.314 3.94667 158.314 3.12C158.314 2.29333 158.594 1.6 159.154 1.04C159.714 0.479999 160.407 0.199998 161.234 0.199998C162.034 0.199998 162.714 0.479999 163.274 1.04C163.834 1.6 164.114 2.29333 164.114 3.12C164.114 3.94667 163.834 4.64 163.274 5.2C162.714 5.76 162.034 6.04 161.234 6.04ZM163.474 8.96V31H158.914V8.96H163.474ZM178.901 19.84L186.021 31H180.861L176.101 23.52L171.621 31H166.861L173.981 20.16L166.861 8.96H172.021L176.781 16.44L181.261 8.96H186.021L178.901 19.84Z" fill="#55C855"/>
</svg>
