<svg width="498" height="378" viewBox="0 0 498 378" fill="none" xmlns="http://www.w3.org/2000/svg">
<g clip-path="url(#clip0_2_181)">
<path d="M372.673 278.185L119.783 270.857C114.097 270.697 108.663 268.446 104.5 264.526C100.337 260.606 97.7306 255.285 97.1684 249.56L84.9615 127.584C84.6365 124.319 84.9856 121.021 85.9867 117.899C86.9877 114.778 88.6189 111.901 90.7768 109.45C92.9348 107 95.5725 105.029 98.5228 103.663C101.473 102.297 104.672 101.566 107.916 101.516L389.403 97.5813C392.75 97.5356 396.069 98.2153 399.135 99.5748C402.2 100.934 404.943 102.942 407.178 105.463C409.412 107.984 411.087 110.959 412.09 114.19C413.092 117.42 413.399 120.83 412.99 124.19L396.601 257.43C395.87 263.275 393.016 268.637 388.594 272.474C384.172 276.31 378.497 278.345 372.673 278.185Z" fill="#EAF9F3"/>
<path d="M301.183 340.305H503.252C505.187 340.305 507.043 339.528 508.411 338.144C509.779 336.761 510.547 334.884 510.547 332.927V217C510.547 215.044 509.779 213.167 508.411 211.784C507.043 210.4 505.187 209.623 503.252 209.623H301.183C299.248 209.623 297.393 210.4 296.025 211.784C294.657 213.167 293.888 215.044 293.888 217V332.878C293.884 334.841 294.65 336.725 296.018 338.117C297.385 339.509 299.243 340.296 301.183 340.305V340.305Z" stroke="#B8D8C7" stroke-width="1.8" stroke-linecap="round" stroke-linejoin="round"/>
<path d="M55.7818 309.516H259.602C261.537 309.516 263.392 308.738 264.76 307.355C266.128 305.971 266.897 304.095 266.897 302.138V132.797C266.897 130.841 266.128 128.964 264.76 127.58C263.392 126.197 261.537 125.42 259.602 125.42H55.7818C53.8471 125.42 51.9916 126.197 50.6235 127.58C49.2555 128.964 48.4869 130.841 48.4869 132.797V302.138C48.4869 304.095 49.2555 305.971 50.6235 307.355C51.9916 308.738 53.8471 309.516 55.7818 309.516Z" stroke="#B8D8C7" stroke-width="1.8" stroke-linecap="round" stroke-linejoin="round"/>
<path d="M135.102 177.014H144.974C145.489 177.015 145.986 176.826 146.371 176.481C146.757 176.137 147.004 175.661 147.066 175.145L147.844 168.062C147.876 167.765 147.846 167.464 147.755 167.18C147.665 166.895 147.516 166.633 147.319 166.41C147.122 166.187 146.88 166.009 146.61 165.887C146.34 165.765 146.048 165.702 145.753 165.701H134.324C134.028 165.702 133.736 165.766 133.467 165.889C133.197 166.011 132.956 166.189 132.759 166.412C132.562 166.634 132.413 166.896 132.323 167.18C132.232 167.465 132.201 167.765 132.233 168.062L133.011 175.145C133.089 175.654 133.341 176.12 133.723 176.461C134.104 176.803 134.592 176.998 135.102 177.014V177.014Z" stroke="#B8D8C7" stroke-width="1.8" stroke-linecap="round" stroke-linejoin="round"/>
<path d="M141.23 165.701C141.23 165.701 145.12 165.308 145.898 159.996C145.898 159.996 142.397 161.029 141.278 163.537C141.278 163.537 140.792 157.93 138.166 157.389C138.166 157.389 136.999 161.57 138.847 163.636C138.847 163.636 137.436 161.275 133.837 161.324C134.178 162.36 134.763 163.296 135.543 164.05C136.323 164.805 137.273 165.355 138.312 165.652" fill="#B8D8C7"/>
<path d="M302.739 234.067H346.606C347.147 234.063 347.664 233.845 348.046 233.458C348.428 233.071 348.645 232.548 348.649 232.002V218.525C348.645 217.978 348.428 217.455 348.046 217.069C347.664 216.682 347.147 216.463 346.606 216.459H302.739C302.199 216.463 301.681 216.682 301.299 217.069C300.917 217.455 300.701 217.978 300.697 218.525V232.002C300.69 232.275 300.738 232.546 300.839 232.8C300.939 233.054 301.089 233.284 301.28 233.477C301.471 233.67 301.699 233.822 301.95 233.924C302.201 234.025 302.469 234.074 302.739 234.067V234.067Z" stroke="#B8D8C7" stroke-width="1.8" stroke-linecap="round" stroke-linejoin="round"/>
<path d="M319.615 221.23H329.73C329.922 221.225 330.105 221.146 330.241 221.009C330.377 220.871 330.455 220.687 330.46 220.492C330.455 220.298 330.377 220.114 330.241 219.976C330.105 219.839 329.922 219.76 329.73 219.755H319.615C319.423 219.76 319.24 219.839 319.104 219.976C318.969 220.114 318.89 220.298 318.885 220.492C318.89 220.687 318.969 220.871 319.104 221.009C319.24 221.146 319.423 221.225 319.615 221.23Z" fill="#B8D8C7"/>
<path d="M302.739 256.594H346.606C347.147 256.59 347.664 256.371 348.046 255.984C348.428 255.598 348.645 255.075 348.649 254.528V241.051C348.645 240.505 348.428 239.982 348.046 239.595C347.664 239.208 347.147 238.99 346.606 238.986H302.739C302.199 238.99 301.681 239.208 301.299 239.595C300.917 239.982 300.701 240.505 300.697 241.051V254.528C300.69 254.801 300.738 255.073 300.839 255.326C300.939 255.58 301.089 255.81 301.28 256.004C301.471 256.197 301.699 256.349 301.95 256.45C302.201 256.552 302.469 256.6 302.739 256.594Z" stroke="#B8D8C7" stroke-width="1.8" stroke-linecap="round" stroke-linejoin="round"/>
<path d="M319.615 243.757H329.73C329.922 243.752 330.105 243.672 330.241 243.535C330.377 243.398 330.455 243.213 330.46 243.019C330.455 242.825 330.377 242.64 330.241 242.503C330.105 242.365 329.922 242.286 329.73 242.281H319.615C319.423 242.286 319.24 242.365 319.104 242.503C318.969 242.64 318.89 242.825 318.885 243.019C318.89 243.213 318.969 243.398 319.104 243.535C319.24 243.672 319.423 243.752 319.615 243.757Z" fill="#B8D8C7"/>
<path d="M99.1136 249.56H142.98C143.521 249.556 144.038 249.338 144.421 248.951C144.803 248.564 145.019 248.041 145.023 247.495V234.018C145.019 233.471 144.803 232.948 144.421 232.562C144.038 232.175 143.521 231.956 142.98 231.952H99.1136C98.5731 231.956 98.0558 232.175 97.6736 232.562C97.2913 232.948 97.0749 233.471 97.0711 234.018V247.495C97.0644 247.768 97.1127 248.039 97.213 248.293C97.3132 248.547 97.4635 248.777 97.6545 248.97C97.8455 249.163 98.0733 249.315 98.3242 249.417C98.575 249.518 98.8436 249.567 99.1136 249.56V249.56Z" stroke="#B8D8C7" stroke-width="1.8" stroke-linecap="round" stroke-linejoin="round"/>
<path d="M115.989 236.674H126.105C126.297 236.669 126.479 236.59 126.615 236.452C126.751 236.315 126.829 236.13 126.834 235.936C126.829 235.742 126.751 235.557 126.615 235.42C126.479 235.283 126.297 235.204 126.105 235.199H115.989C115.797 235.204 115.615 235.283 115.479 235.42C115.343 235.557 115.265 235.742 115.26 235.936C115.258 236.034 115.275 236.131 115.311 236.221C115.347 236.311 115.401 236.394 115.469 236.462C115.537 236.531 115.618 236.586 115.708 236.622C115.797 236.658 115.893 236.676 115.989 236.674Z" fill="#B8D8C7"/>
<path d="M155.43 249.56H199.297C199.838 249.556 200.355 249.338 200.737 248.951C201.12 248.564 201.336 248.041 201.34 247.495V234.018C201.336 233.471 201.12 232.948 200.737 232.562C200.355 232.175 199.838 231.956 199.297 231.952H155.43C154.89 231.956 154.373 232.175 153.99 232.562C153.608 232.948 153.392 233.471 153.388 234.018V247.495C153.381 247.768 153.43 248.039 153.53 248.293C153.63 248.547 153.78 248.777 153.971 248.97C154.162 249.163 154.39 249.315 154.641 249.417C154.892 249.518 155.16 249.567 155.43 249.56Z" stroke="#B8D8C7" stroke-width="1.8" stroke-linecap="round" stroke-linejoin="round"/>
<path d="M172.306 236.674H182.422C182.614 236.669 182.796 236.59 182.932 236.452C183.068 236.315 183.146 236.13 183.151 235.936C183.146 235.742 183.068 235.557 182.932 235.42C182.796 235.283 182.614 235.204 182.422 235.199H172.306C172.114 235.204 171.931 235.283 171.796 235.42C171.66 235.557 171.581 235.742 171.577 235.936C171.575 236.034 171.592 236.131 171.628 236.221C171.664 236.311 171.718 236.394 171.786 236.462C171.854 236.531 171.935 236.586 172.025 236.622C172.114 236.658 172.21 236.676 172.306 236.674Z" fill="#B8D8C7"/>
<path d="M358.618 234.067H402.485C403.026 234.063 403.543 233.845 403.925 233.458C404.307 233.071 404.524 232.548 404.528 232.002V218.525C404.524 217.978 404.307 217.455 403.925 217.069C403.543 216.682 403.026 216.463 402.485 216.459H358.618C358.078 216.463 357.56 216.682 357.178 217.069C356.796 217.455 356.58 217.978 356.576 218.525V232.002C356.58 232.548 356.796 233.071 357.178 233.458C357.56 233.845 358.078 234.063 358.618 234.067V234.067Z" stroke="#B8D8C7" stroke-width="1.8" stroke-linecap="round" stroke-linejoin="round"/>
<path d="M375.543 221.23H385.658C385.85 221.225 386.033 221.146 386.169 221.009C386.304 220.871 386.383 220.687 386.388 220.492C386.383 220.298 386.304 220.114 386.169 219.976C386.033 219.839 385.85 219.76 385.658 219.755H375.543C375.351 219.76 375.168 219.839 375.032 219.976C374.897 220.114 374.818 220.298 374.813 220.492C374.811 220.59 374.829 220.687 374.865 220.777C374.901 220.868 374.954 220.95 375.022 221.019C375.091 221.088 375.172 221.142 375.261 221.178C375.351 221.215 375.446 221.232 375.543 221.23Z" fill="#B8D8C7"/>
<path d="M358.618 256.594H402.485C403.026 256.59 403.543 256.371 403.925 255.984C404.307 255.598 404.524 255.075 404.528 254.528V241.051C404.524 240.505 404.307 239.982 403.925 239.595C403.543 239.208 403.026 238.99 402.485 238.986H358.618C358.078 238.99 357.56 239.208 357.178 239.595C356.796 239.982 356.58 240.505 356.576 241.051V254.528C356.58 255.075 356.796 255.598 357.178 255.984C357.56 256.371 358.078 256.59 358.618 256.594V256.594Z" stroke="#B8D8C7" stroke-width="1.8" stroke-linecap="round" stroke-linejoin="round"/>
<path d="M375.543 243.757H385.658C385.85 243.752 386.033 243.672 386.169 243.535C386.304 243.398 386.383 243.213 386.388 243.019C386.383 242.825 386.304 242.64 386.169 242.503C386.033 242.365 385.85 242.286 385.658 242.281H375.543C375.351 242.286 375.168 242.365 375.032 242.503C374.897 242.64 374.818 242.825 374.813 243.019C374.811 243.116 374.829 243.213 374.865 243.304C374.901 243.394 374.954 243.476 375.022 243.545C375.091 243.614 375.172 243.668 375.261 243.705C375.351 243.741 375.446 243.759 375.543 243.757Z" fill="#B8D8C7"/>
<path d="M35.2102 177.014H256.49C257.081 177.007 257.646 176.767 258.064 176.344C258.483 175.921 258.72 175.349 258.727 174.751V135.551C258.72 134.953 258.483 134.382 258.064 133.959C257.646 133.536 257.081 133.295 256.49 133.289H35.2102C34.6188 133.295 34.0534 133.536 33.6353 133.959C33.2171 134.382 32.9794 134.953 32.973 135.551V174.751C32.9794 175.349 33.2171 175.921 33.6353 176.344C34.0534 176.767 34.6188 177.007 35.2102 177.014V177.014Z" stroke="#B8D8C7" stroke-width="1.8" stroke-linecap="round" stroke-linejoin="round"/>
<path d="M35.2102 225.657H256.49C257.081 225.65 257.646 225.41 258.064 224.987C258.483 224.564 258.72 223.992 258.727 223.394V184.195C258.72 183.597 258.483 183.025 258.064 182.602C257.646 182.179 257.081 181.938 256.49 181.932H35.2102C34.6188 181.938 34.0534 182.179 33.6353 182.602C33.2171 183.025 32.9794 183.597 32.973 184.195V223.394C32.9794 223.992 33.2171 224.564 33.6353 224.987C34.0534 225.41 34.6188 225.65 35.2102 225.657V225.657Z" stroke="#B8D8C7" stroke-width="1.8" stroke-linecap="round" stroke-linejoin="round"/>
<path d="M243.835 152.274H239.021V177.014H243.835V152.274Z" stroke="#B8D8C7" stroke-width="1.8" stroke-linecap="round" stroke-linejoin="round"/>
<path d="M239.05 158.968H234.041V176.969H239.05V158.968Z" stroke="#B8D8C7" stroke-width="1.8" stroke-linecap="round" stroke-linejoin="round"/>
<path d="M98.7246 200.839H93.91V225.578H98.7246V200.839Z" stroke="#B8D8C7" stroke-width="1.8" stroke-linecap="round" stroke-linejoin="round"/>
<path d="M93.9391 207.582H88.93V225.583H93.9391V207.582Z" stroke="#B8D8C7" stroke-width="1.8" stroke-linecap="round" stroke-linejoin="round"/>
<path d="M108.544 200.839H103.729V225.578H108.544V200.839Z" stroke="#B8D8C7" stroke-width="1.8" stroke-linecap="round" stroke-linejoin="round"/>
<path d="M113.054 200.32L108.462 201.786L115.826 225.378L120.418 223.912L113.054 200.32Z" stroke="#B8D8C7" stroke-width="1.8" stroke-linecap="round" stroke-linejoin="round"/>
<path d="M103.753 207.582H98.744V225.583H103.753V207.582Z" stroke="#B8D8C7" stroke-width="1.8" stroke-linecap="round" stroke-linejoin="round"/>
<path d="M163.688 152.274H158.874V177.014H163.688V152.274Z" stroke="#B8D8C7" stroke-width="1.8" stroke-linecap="round" stroke-linejoin="round"/>
<path d="M158.898 158.968H153.889V176.969H158.898V158.968Z" stroke="#B8D8C7" stroke-width="1.8" stroke-linecap="round" stroke-linejoin="round"/>
<path d="M211.212 152.274H206.398V177.014H211.212V152.274Z" stroke="#B8D8C7" stroke-width="1.8" stroke-linecap="round" stroke-linejoin="round"/>
<path d="M215.731 151.722L211.14 153.188L218.504 176.78L223.095 175.314L215.731 151.722Z" stroke="#B8D8C7" stroke-width="1.8" stroke-linecap="round" stroke-linejoin="round"/>
<path d="M206.427 158.968H201.418V176.969H206.427V158.968Z" stroke="#B8D8C7" stroke-width="1.8" stroke-linecap="round" stroke-linejoin="round"/>
<path d="M94.0072 155.471L93.4723 148.143C93.4618 148.028 93.4757 147.912 93.5129 147.803C93.5501 147.695 93.6098 147.595 93.688 147.511C93.7662 147.427 93.8611 147.361 93.9665 147.318C94.0718 147.274 94.1852 147.253 94.299 147.257H98.4814C98.594 147.258 98.7053 147.281 98.8086 147.327C98.9119 147.372 99.005 147.438 99.0823 147.521C99.1596 147.604 99.2195 147.701 99.2583 147.808C99.2972 147.915 99.3141 148.029 99.3082 148.143L98.7732 155.471C98.7732 155.471 103.15 158.324 103.102 160.685C103.053 162.504 101.983 171.21 101.497 175.046C101.435 175.563 101.188 176.038 100.802 176.383C100.417 176.727 99.9198 176.917 99.4055 176.915H93.375C92.8606 176.917 92.3637 176.727 91.9782 176.383C91.5928 176.038 91.3457 175.563 91.2838 175.046C90.7975 171.21 89.7275 162.504 89.6789 160.685C89.6303 158.324 94.0072 155.471 94.0072 155.471Z" fill="#B8D8C7"/>
<path d="M415.47 265.889L-50.0432 261.217" stroke="#B8D8C7" stroke-width="1.8" stroke-linecap="round" stroke-linejoin="round"/>
<path d="M243.845 194.769L234.362 271.398C234.337 271.594 234.353 271.793 234.41 271.982C234.467 272.172 234.563 272.346 234.692 272.495C234.821 272.644 234.979 272.763 235.157 272.845C235.335 272.928 235.528 272.971 235.723 272.972C236.053 272.975 236.373 272.858 236.623 272.64C236.874 272.423 237.038 272.122 237.085 271.792L247.93 196.687L243.845 194.769Z" fill="#B0D7C0"/>
<path d="M273.316 205.737L282.8 282.366C282.825 282.562 282.808 282.761 282.751 282.95C282.694 283.139 282.598 283.314 282.469 283.463C282.341 283.612 282.182 283.731 282.004 283.813C281.827 283.896 281.634 283.939 281.438 283.94C281.108 283.943 280.788 283.826 280.538 283.608C280.287 283.391 280.123 283.09 280.076 282.76L269.231 207.655L273.316 205.737Z" fill="#B0D7C0"/>
<path d="M227.31 202.737L214.568 278.874C214.537 279.07 214.547 279.27 214.598 279.461C214.649 279.652 214.74 279.831 214.864 279.984C214.988 280.137 215.143 280.262 215.318 280.351C215.493 280.439 215.685 280.489 215.881 280.497C216.212 280.514 216.538 280.409 216.797 280.201C217.057 279.993 217.233 279.696 217.291 279.366L231.346 204.803L227.31 202.737Z" fill="#B0D7C0"/>
<path d="M263.006 195.113L270.009 271.988C270.028 272.183 270.087 272.372 270.182 272.543C270.278 272.713 270.408 272.861 270.564 272.977C270.72 273.093 270.899 273.175 271.088 273.216C271.277 273.258 271.473 273.258 271.663 273.218C271.981 273.149 272.263 272.967 272.46 272.705C272.656 272.444 272.753 272.119 272.733 271.792L267.432 196.048L263.006 195.113Z" fill="#B0D7C0"/>
<path d="M283.286 126.698C277.985 125.813 260.429 187.982 260.429 187.982H277.304C277.304 187.982 269.037 197.966 268.745 198.901C268.453 199.835 265.438 212.475 265.438 212.475C285.62 205.983 281.146 187.933 281.146 187.933C276.818 174.407 282.848 157.094 285.426 142.782C288.004 128.469 283.286 126.698 283.286 126.698Z" fill="#FFE779"/>
<path d="M220.744 209.18C220.744 209.18 221.182 215.918 238.544 216.902C255.906 217.886 278.277 216.164 281.195 196.245C281.244 196.245 224.246 203.573 220.744 209.18Z" fill="#FFE779"/>
<path d="M276.915 186.605C272.198 169.193 290.435 130.289 283.335 126.649C276.04 122.96 248.027 124.485 240.489 131.076C233.438 137.273 230.228 183.211 229.839 189.015C229.798 189.209 229.782 189.407 229.79 189.605C229.79 193.048 229.304 198.851 226.823 200.671C222.009 204.213 214.082 209.574 229.255 213.508C229.255 213.508 235.821 215.033 254.544 214.246C279.882 213.164 277.353 197.376 277.304 187.933C277.289 187.464 277.155 187.007 276.915 186.605Z" fill="white"/>
<path d="M209.218 274.939C209.218 274.939 211.358 285.268 211.845 286.104C212.331 286.94 215.978 288.76 220.939 287.285C225.899 285.809 226.045 283.94 226.045 283.94C226.045 283.94 225.073 272.087 225.073 270.759C225.073 269.431 208.392 267.07 209.218 274.939Z" fill="#B28D93"/>
<path d="M225.559 278.284C225.316 275.038 225.024 271.447 225.024 270.759C225.024 269.431 208.343 267.07 209.17 274.939C209.17 274.939 209.51 276.513 209.899 278.481C215.035 279.893 220.459 279.825 225.559 278.284Z" fill="#896068"/>
<path d="M211.31 284.333C211.31 284.333 210.726 285.268 210.726 290.137C210.726 295.006 203.431 306.024 203.917 309.024C204.404 312.024 224.927 312.762 226.775 310.549C228.623 308.335 226.678 292.006 226.823 290.285C226.969 288.563 227.602 285.317 225.948 283.251C225.948 283.251 224.246 284.973 222.884 285.268C221.522 285.563 220.258 282.76 217.583 282.268C214.908 281.776 213.158 284.973 212.866 285.268C212.574 285.563 211.407 285.17 211.31 284.333Z" fill="#001427"/>
<path d="M212.185 295.843C212.185 295.843 216.319 292.941 222.884 296.236" stroke="white" stroke-width="1.8" stroke-linecap="round" stroke-linejoin="round"/>
<path d="M210.58 300.466C210.58 300.466 216.319 296.384 222.933 301.302" stroke="white" stroke-width="1.8" stroke-linecap="round" stroke-linejoin="round"/>
<path d="M262.082 280.546C262.082 280.546 265.389 289.891 267.189 291.564C268.988 293.236 273.803 293.383 277.11 291.564C280.417 289.744 280.271 286.989 280.271 286.989C280.271 286.989 277.402 271.693 276.769 271.3C276.137 270.906 262.082 276.071 262.082 280.546Z" fill="#B28D93"/>
<path d="M262.082 280.546C262.082 280.546 262.909 282.858 263.93 285.416C269.572 286.399 274.484 284.481 279.25 281.727C278.374 277.251 277.158 271.546 276.769 271.3C276.088 270.857 262.082 276.071 262.082 280.546Z" fill="#896068"/>
<path d="M265.681 288.957C265.681 288.957 265.243 289.104 266.508 293.236C267.14 295.449 260.137 306.811 260.283 309.614C260.429 312.418 266.265 312.909 270.885 313.057C277.937 313.254 282.557 311.827 282.946 307.253C283.335 302.679 282.119 293.777 282.119 291.809C282.119 289.842 281.487 287.58 279.882 284.924C279.882 284.924 280.028 288.613 278.569 289.301C277.11 289.99 274.386 287.334 272.295 287.875C270.204 288.416 269.329 290.039 268.453 290.973C267.578 291.908 265.924 289.498 265.681 288.957Z" fill="#001427"/>
<path d="M267.821 298.499C267.821 298.499 271.614 294.662 278.277 297.613" stroke="white" stroke-width="1.8" stroke-linecap="round" stroke-linejoin="round"/>
<path d="M265.73 302.876C265.73 302.876 271.712 297.859 278.228 302.482" stroke="white" stroke-width="1.8" stroke-linecap="round" stroke-linejoin="round"/>
<path d="M227.942 186.949C227.942 186.949 205.62 199.392 199.735 210.803C193.85 222.214 203.042 258.561 202.896 266.234C202.75 273.906 203.723 275.038 207.954 276.661C212.185 278.284 221.377 277.939 225.219 275.038C230.179 271.3 227.893 264.463 226.775 256.2C225.656 247.937 225.121 223.542 225.121 223.542C225.121 223.542 235.626 214.935 240.781 212.377C241.771 211.894 242.845 211.61 243.942 211.541C244.308 211.517 244.674 211.583 245.01 211.733C245.345 211.883 245.64 212.112 245.869 212.402C246.098 212.692 246.255 213.033 246.326 213.397C246.397 213.76 246.38 214.136 246.277 214.492C245.012 219.017 243.213 230.378 243.942 235.592C244.623 240.461 247.979 252.511 254.544 272.923C255.857 276.956 256.295 280.202 257.9 281.579C264.66 287.334 279.347 281.186 280.903 275.825C281.535 273.611 279.93 266.086 277.839 257.872C274.873 246.117 270.885 232.936 271.177 231.51C271.663 229.1 277.937 206.967 276.283 197.032C272.295 172.981 253.863 182.67 227.942 186.949Z" fill="#001427"/>
<path d="M206.738 225.854C210.794 225.854 214.082 222.22 214.082 217.738C214.082 213.256 210.794 209.623 206.738 209.623C202.682 209.623 199.395 213.256 199.395 217.738C199.395 222.22 202.682 225.854 206.738 225.854Z" stroke="#63737A" stroke-linecap="round" stroke-linejoin="round"/>
<path d="M255.424 243.765C259.575 243.187 262.448 239.098 261.84 234.631C261.233 230.164 257.375 227.01 253.224 227.588C249.073 228.165 246.201 232.254 246.808 236.722C247.416 241.189 251.273 244.342 255.424 243.765Z" stroke="#63737A" stroke-linecap="round" stroke-linejoin="round"/>
<path d="M225.121 223.542C225.121 223.542 224.829 220.492 223.905 218.869" stroke="#63737A" stroke-linecap="round" stroke-linejoin="round"/>
<path d="M244.576 211.393C244.576 211.393 245.112 208 244.234 207.016" stroke="#63737A" stroke-linecap="round" stroke-linejoin="round"/>
<path d="M238.544 207.41C238.544 207.41 242.143 207.114 249.924 207.41" stroke="#63737A" stroke-linecap="round" stroke-linejoin="round"/>
<path d="M230.811 136.929C230.811 136.929 227.991 137.961 223.614 144.651C221.215 148.35 218.532 151.853 215.589 155.127C215.589 155.127 210.58 149.569 205.328 146.028C200.075 142.486 194.094 136.929 194.094 136.929C194.094 136.929 190.154 134.765 187.674 137.716C185.194 140.667 186.458 144.946 186.458 144.946C186.458 144.946 192.343 153.012 200.999 163.537C206.641 170.423 212.38 175.341 217.194 173.817C223.614 171.8 236.258 160.193 238.447 155.569C240.635 150.946 238.982 135.256 230.811 136.929Z" fill="#55C855"/>
<path d="M215.541 155.127C216.668 156.59 217.539 158.236 218.118 159.996" stroke="#001427" stroke-width="1.8" stroke-linecap="round" stroke-linejoin="round"/>
<path d="M194.288 137.175C194.288 137.175 190.397 133.928 187.625 134.224C184.027 134.617 184.075 133.781 181.789 134.273C180.719 134.519 178.774 135.306 176.732 137.863C175.712 139.085 174.785 140.384 173.96 141.749C173.96 141.749 171.82 137.125 170.507 137.863C169.194 138.601 172.306 145.683 173.376 146.421C174.446 147.159 177.607 145.88 178.726 146.421C179.844 146.962 182.859 145.979 182.859 145.979L186.993 144.946L188.063 146.126C188.233 146.31 188.452 146.441 188.694 146.502C188.935 146.563 189.189 146.552 189.425 146.47C191.079 145.79 192.405 144.485 193.121 142.831C194.823 139.24 194.288 137.175 194.288 137.175Z" fill="#B28D93"/>
<path d="M173.96 141.749C173.96 141.749 171.82 137.125 170.507 137.863C169.194 138.601 172.306 145.683 173.376 146.421C174.446 147.159 177.607 145.88 178.726 146.421" stroke="#89555F" stroke-width="1.8" stroke-linecap="round" stroke-linejoin="round"/>
<path d="M189.279 140.322C189.279 140.322 187.869 144.06 186.118 146.47C184.367 148.88 181.741 148.979 180.574 148.192C179.406 147.405 180.963 141.995 181.303 140.667C181.644 139.339 182.713 138.109 183.394 139.585C183.929 140.716 183.151 143.421 183.297 145.585" fill="#B28D93"/>
<path d="M181.206 147.749C181.206 147.749 179.698 148.684 178.823 148.389C177.947 148.093 177.413 147.454 177.267 146.126C177.121 144.798 177.607 140.814 177.558 139.781C177.51 138.748 179.115 137.912 179.796 140.273C180.476 142.634 180.136 144.7 180.574 145.192" fill="#B28D93"/>
<path d="M177.899 147.061C177.182 147.422 176.409 147.655 175.613 147.749C174.446 147.848 173.911 147.061 173.522 144.651C173.084 141.749 172.744 138.798 173.765 138.65C174.786 138.502 175.321 140.076 175.71 141.699C176.099 143.323 176.343 144.355 176.586 144.405" fill="#B28D93"/>
<path d="M182.276 134.224C182.276 134.224 179.504 134.42 178.482 134.42C177.461 134.42 174.786 133.732 174.203 134.568C173.619 135.404 175.273 136.929 178.239 137.322C181.206 137.716 184.075 135.355 182.276 134.224Z" fill="#B28D93"/>
<path d="M189.279 148.733C189.279 148.733 193.121 150.012 195.796 146.126C198.179 142.683 197.255 139.732 197.255 139.732" stroke="#001427" stroke-width="1.8" stroke-linecap="round" stroke-linejoin="round"/>
<path d="M209.413 171.849C209.413 171.849 208.489 170.718 210.872 170.03C213.255 169.341 222.544 168.948 221.425 171.653" stroke="#001427" stroke-width="1.8" stroke-linecap="round" stroke-linejoin="round"/>
<path d="M189.279 140.322C189.279 140.322 187.869 144.06 186.118 146.47C184.367 148.88 181.741 148.979 180.574 148.192C179.406 147.405 180.963 141.995 181.303 140.667C181.644 139.339 182.713 138.109 183.394 139.585C183.929 140.716 183.151 143.421 183.297 145.585" stroke="#89555F" stroke-width="1.8" stroke-linecap="round" stroke-linejoin="round"/>
<path d="M180.282 148.192C179.831 148.422 179.317 148.491 178.823 148.389C177.947 148.093 177.413 147.454 177.267 146.126C177.121 144.798 177.607 140.814 177.558 139.781C177.51 138.748 179.115 137.912 179.796 140.273C180.282 142.044 180.233 143.568 180.379 144.503" stroke="#89555F" stroke-width="1.8" stroke-linecap="round" stroke-linejoin="round"/>
<path d="M177.51 147.208C176.911 147.483 176.269 147.649 175.613 147.7C174.446 147.798 173.911 147.011 173.522 144.601C173.084 141.699 172.744 138.748 173.765 138.601C174.786 138.453 175.321 140.027 175.71 141.65C176.099 143.273 176.343 144.306 176.586 144.355" stroke="#89555F" stroke-width="1.8" stroke-linecap="round" stroke-linejoin="round"/>
<path d="M177.364 137.224C178.19 136.388 179.103 135.646 180.087 135.01" stroke="#89555F" stroke-width="1.8" stroke-linecap="round" stroke-linejoin="round"/>
<path d="M236.161 110.714C236.113 109.825 236.161 108.935 236.307 108.058C236.696 105.992 237.717 101.664 239.419 100.237C241.948 98.1223 243.31 101.27 243.31 101.27C243.31 101.27 245.061 98.9585 246.714 99.2044C248.368 99.4503 249.243 101.418 249.243 101.418C249.243 101.418 251.918 99.2044 253.523 100.286C254.499 100.937 255.221 101.911 255.565 103.041C255.565 103.041 257.268 101.073 259.067 101.86C260.866 102.647 261.207 107.32 261.207 107.32C261.207 107.32 263.006 108.353 263.395 111.943C263.833 115.779 261.985 121.436 258.192 127.928C258.192 127.928 250.362 113.665 245.401 111.648C240.441 109.631 240.489 113.369 238.933 113.468C237.571 113.517 236.404 113.369 236.161 110.714Z" fill="#001427"/>
<path d="M237.134 137.322C237.134 137.322 231.054 138.06 238.155 131.568C244.283 125.961 264.708 127.534 267.335 132.355C269.28 135.945 271.76 145.536 263.493 151.29C255.225 157.045 240.83 150.946 237.134 137.322Z" fill="#55C855"/>
<path d="M248.805 135.502C248.805 135.502 254.495 135.256 259.261 135.06C264.028 134.863 270.982 134.961 274.824 140.273C279.25 146.323 272.587 167.177 271.614 172.489C270.642 177.801 274.386 184.195 274.192 188.572C274.095 191.08 270.982 197.671 257.17 198.901C241.559 200.327 227.796 197.081 226.288 187.982C225.267 181.883 229.255 177.604 227.893 167.669C227.164 162.455 226.24 145.585 227.991 140.814C229.741 136.043 232.659 134.469 248.805 135.502Z" fill="#FFE779"/>
<path d="M242.969 130.682C242.969 130.682 242.289 136.142 241.997 137.568C241.705 138.994 242.483 143.027 248.125 142.978C254.204 142.929 257.997 138.011 258.143 136.043C258.289 134.076 257.802 124.583 258.629 121.436C259.456 118.288 251.675 120.108 248.319 122.075C244.963 124.042 242.629 129.059 242.969 130.682Z" fill="#B28D93"/>
<path d="M253.037 130.24C249.875 130.977 245.985 133.732 242.629 133.191C242.532 134.027 242.386 134.912 242.289 135.699C246.763 136.437 250.994 133.584 253.037 130.24Z" fill="#896068"/>
<path d="M242.483 134.371C242.483 134.371 241.705 140.027 246.423 142.831C246.423 142.831 251.869 142.339 255.857 138.404C256.593 137.664 257.175 136.782 257.567 135.811C257.96 134.839 258.156 133.798 258.143 132.748V132.305C258.143 132.305 265.778 132.404 267.967 134.715C272.149 139.142 254.982 146.175 245.644 147.651C245.644 147.651 236.988 142.782 234.945 137.814C232.903 132.846 241.802 134.568 242.483 134.371Z" fill="#55C855"/>
<path d="M244.039 144.552C242.568 149.234 241.622 154.068 241.219 158.963" stroke="#001427" stroke-width="1.8" stroke-linecap="round" stroke-linejoin="round"/>
<path d="M242.337 159.553C242.386 158.914 242.045 156.947 241.413 156.897C240.781 156.848 240.052 158.717 240.003 159.357C239.981 159.669 240.081 159.977 240.281 160.216C240.481 160.455 240.765 160.605 241.073 160.635C241.227 160.655 241.384 160.642 241.534 160.598C241.683 160.553 241.821 160.477 241.94 160.376C242.059 160.274 242.156 160.148 242.224 160.007C242.293 159.865 242.331 159.711 242.337 159.553Z" fill="#55C855"/>
<path d="M249.729 144.7C249.354 149.59 249.534 154.508 250.264 159.357" stroke="#001427" stroke-width="1.8" stroke-linecap="round" stroke-linejoin="round"/>
<path d="M251.529 159.75C251.432 159.111 250.654 157.291 250.021 157.389C249.389 157.488 249.097 159.455 249.195 160.094C249.242 160.413 249.411 160.7 249.666 160.894C249.921 161.087 250.241 161.171 250.556 161.127C250.86 161.064 251.129 160.887 251.31 160.632C251.49 160.376 251.568 160.061 251.529 159.75Z" fill="#55C855"/>
<path d="M231.979 181.883C233.547 179.324 234.558 176.457 234.945 173.472C234.991 173.01 235.216 172.584 235.572 172.289C235.927 171.994 236.384 171.853 236.842 171.899C240.441 172.292 248.465 173.03 254.496 172.489C254.726 172.468 254.958 172.493 255.178 172.564C255.398 172.634 255.603 172.749 255.779 172.899C255.956 173.05 256.101 173.235 256.206 173.444C256.311 173.652 256.374 173.879 256.392 174.112C256.587 176.227 257.511 179.817 261.11 183.309C261.406 183.556 261.597 183.908 261.645 184.293C262.114 186.706 262.326 189.163 262.277 191.621C262.082 195.015 239.517 197.327 231.735 190.343C231.549 190.167 231.401 189.953 231.3 189.716C231.2 189.479 231.149 189.223 231.152 188.965C231.2 187.637 231.395 184.883 231.735 182.621C231.771 182.362 231.854 182.112 231.979 181.883Z" fill="#55C855"/>
<path d="M236.599 113.025C236.599 113.025 236.501 117.845 236.064 121.977C235.626 126.108 236.064 131.617 242.629 133.338C249.194 135.06 255.565 130.043 257.948 123.452C260.331 116.861 260.429 107.959 252.064 104.467C243.699 100.975 236.988 105.352 236.599 113.025Z" fill="#B28D93"/>
<path d="M261.061 117.255C260.429 120.354 259.991 122.026 259.991 122.026L257.948 119.862C257.948 119.862 254.447 119.37 253.961 113.025C253.925 112.491 253.754 111.976 253.464 111.528C253.175 111.08 252.776 110.715 252.307 110.468C249.438 108.943 247.93 111.205 242.337 110.812C240.441 110.664 237.523 110.369 237.62 107.418C237.863 99.7454 249.584 100.336 255.128 103.828C260.672 107.32 261.693 114.206 261.061 117.255Z" fill="#001427"/>
<path d="M255.614 120.304C255.614 120.304 256.878 117.403 258.97 117.698C261.207 117.993 261.401 124.78 255.614 125.174" fill="#B28D93"/>
<path d="M239.662 116.517C239.751 117.186 239.767 117.862 239.711 118.534C239.68 119.222 239.549 119.901 239.322 120.55C239.273 120.698 239.176 120.895 239.128 121.042C239.079 121.19 239.03 121.288 238.982 121.436C238.923 121.648 238.94 121.874 239.03 122.075C239.362 122.579 239.863 122.946 240.441 123.108C240.091 123.206 239.721 123.206 239.371 123.108C238.985 123.01 238.643 122.785 238.398 122.468C238.254 122.299 238.153 122.097 238.106 121.878C238.058 121.668 238.058 121.449 238.106 121.239C238.155 121.053 238.22 120.872 238.301 120.698C238.356 120.562 238.421 120.43 238.495 120.304C238.982 119.075 239.225 117.796 239.662 116.517Z" fill="#001427"/>
<path d="M242.386 127.141C242.386 127.141 242.726 126.403 243.553 127.043C244.38 127.682 244.72 127.436 245.158 126.895C245.596 126.354 245.79 127.387 246.763 126.993" stroke="#001427" stroke-width="0.5" stroke-linecap="round" stroke-linejoin="round"/>
<path d="M246.568 115.288C246.487 115.124 246.439 114.946 246.43 114.763C246.42 114.58 246.448 114.397 246.512 114.226C246.576 114.055 246.675 113.899 246.802 113.768C246.929 113.638 247.081 113.536 247.249 113.468C248.222 113.025 249.827 113.763 250.751 114.747C251.675 115.73 251.188 116.222 250.07 115.73C248.951 115.238 248.465 115.14 247.492 115.484C247.339 115.561 247.164 115.583 246.997 115.548C246.829 115.512 246.678 115.42 246.568 115.288Z" fill="#001427"/>
<path d="M239.663 114.796C239.812 114.522 239.86 114.203 239.798 113.896C239.735 113.589 239.567 113.315 239.322 113.124C238.641 112.632 237.523 113.124 236.939 113.91C236.404 114.599 236.647 114.993 237.377 114.796C238.106 114.599 238.398 114.501 239.03 114.894C239.13 114.958 239.248 114.983 239.365 114.965C239.481 114.947 239.587 114.887 239.663 114.796Z" fill="#001427"/>
<path d="M259.116 120.403C258.952 120.302 258.77 120.235 258.581 120.206C258.53 120.198 258.477 120.209 258.433 120.236C258.389 120.263 258.355 120.304 258.338 120.354C258.211 120.649 258.145 120.967 258.143 121.288C258.128 121.751 258.012 122.204 257.803 122.616C257.732 122.729 257.64 122.827 257.532 122.903C257.423 122.979 257.3 123.032 257.17 123.059C257.062 123.099 256.946 123.116 256.83 123.108C256.733 123.108 256.587 123.059 256.489 123.059C256.879 122.813 257.17 122.567 257.17 122.321C257.17 122.075 257.219 121.682 257.268 121.239C257.282 120.736 257.492 120.259 257.851 119.911C257.971 119.797 258.125 119.728 258.289 119.714C258.44 119.712 258.59 119.746 258.727 119.813C258.905 119.972 259.039 120.175 259.116 120.403Z" fill="#001427"/>
<path d="M238.398 119.075C238.491 119.089 238.586 119.083 238.677 119.057C238.768 119.032 238.853 118.988 238.926 118.928C238.999 118.868 239.059 118.793 239.102 118.708C239.145 118.623 239.17 118.531 239.176 118.435L239.225 117.993C239.238 117.898 239.233 117.802 239.208 117.71C239.183 117.619 239.139 117.533 239.08 117.459C239.02 117.385 238.946 117.324 238.862 117.281C238.779 117.237 238.687 117.212 238.593 117.206C238.499 117.192 238.404 117.198 238.313 117.223C238.223 117.249 238.138 117.293 238.065 117.353C237.992 117.413 237.932 117.488 237.889 117.572C237.845 117.657 237.82 117.75 237.815 117.845L237.766 118.288C237.751 118.382 237.755 118.479 237.78 118.572C237.804 118.664 237.848 118.75 237.907 118.825C237.967 118.899 238.042 118.96 238.126 119.003C238.211 119.046 238.304 119.07 238.398 119.075Z" fill="#001427"/>
<path d="M247.103 119.911C247.197 119.925 247.292 119.919 247.383 119.893C247.473 119.868 247.558 119.824 247.631 119.764C247.704 119.704 247.764 119.629 247.807 119.544C247.85 119.46 247.876 119.367 247.881 119.272L247.93 118.829C247.944 118.735 247.938 118.638 247.913 118.547C247.888 118.455 247.844 118.369 247.785 118.295C247.725 118.221 247.651 118.16 247.568 118.117C247.484 118.073 247.392 118.048 247.298 118.042C247.205 118.028 247.11 118.034 247.019 118.059C246.928 118.085 246.843 118.129 246.77 118.189C246.697 118.249 246.637 118.324 246.594 118.409C246.551 118.493 246.526 118.586 246.52 118.681L246.471 119.124C246.459 119.311 246.518 119.497 246.635 119.642C246.752 119.788 246.919 119.884 247.103 119.911Z" fill="#001427"/>
<path d="M272.198 139.142C272.756 139.133 273.31 139.238 273.828 139.449C274.346 139.66 274.817 139.974 275.213 140.372C276.186 141.306 278.228 143.273 282.216 147.061C288.636 153.209 289.511 154.389 289.511 154.389C289.511 154.389 295.153 158.865 295.736 164.423C296.32 169.98 292.624 177.456 282.994 171.21C273.365 164.964 268.696 160.783 266.751 156.553C265 152.766 266.021 139.289 272.198 139.142Z" fill="#55C855"/>
<path d="M286.642 159.75C288.436 156.004 290.892 152.62 293.888 149.766C298.946 144.896 304.928 138.896 306.046 137.716C307.165 136.535 309.888 133.83 313.584 136.732C317.28 139.634 315.141 144.7 315.141 144.7C315.141 144.7 308.672 155.225 303.323 164.177C297.973 173.128 292.526 176.079 285.621 172.686C278.715 169.292 286.642 159.75 286.642 159.75Z" fill="#55C855"/>
<path d="M306.046 138.453C306.046 138.453 308.818 134.666 309.937 133.338C311.055 132.01 313.098 129.994 315.773 130.781C318.448 131.568 319.858 129.895 321.901 132.059C323.943 134.223 325.354 138.207 326.667 139.683C327.98 141.158 327.639 141.552 329.73 141.503C331.822 141.454 333.524 141.945 332.648 143.126C331.773 144.306 326.083 144.601 325.305 144.503C324.527 144.405 320.879 144.896 319.955 144.454C319.031 144.011 319.177 144.405 318.399 143.962C317.621 143.519 315.627 142.536 315.627 142.536C315.231 143.316 314.741 144.043 314.168 144.7C313.341 145.585 309.742 145.437 307.408 142.683C305.414 140.322 306.046 138.453 306.046 138.453Z" fill="#B28D93"/>
<path d="M326.667 139.732C327.98 141.208 327.639 141.601 329.73 141.552C331.822 141.503 333.524 141.995 332.648 143.175C331.773 144.355 326.083 144.651 325.305 144.552" stroke="#89555F" stroke-width="1.8" stroke-linecap="round" stroke-linejoin="round"/>
<path d="M318.594 142.929C318.691 140.322 319.518 138.257 320.296 138.552C321.074 138.847 321.512 144.405 319.663 145.683C317.815 146.962 312.855 140.076 311.882 139.634" fill="#B28D93"/>
<path d="M319.42 145.241C319.42 145.241 320.442 147.257 321.949 146.274C323.457 145.29 324.964 140.765 325.256 139.781C325.548 138.798 323.7 138.404 322.484 140.814C321.268 143.224 320.393 143.568 320.393 143.568" fill="#B28D93"/>
<path d="M322.338 145.437C322.557 145.807 322.89 146.094 323.285 146.254C323.68 146.413 324.116 146.438 324.527 146.323C326.034 145.929 327.98 142.88 328.904 141.896C329.828 140.913 328.661 139.634 327.056 140.814C325.451 141.995 324.284 143.126 323.505 143.372" fill="#B28D93"/>
<path d="M321.22 131.518C321.22 131.518 322.387 132.109 323.895 134.174C325.402 136.24 328.32 136.535 328.661 137.617C329.001 138.699 325.937 139.142 323.505 137.961C321.074 136.781 320.15 131.764 321.22 131.518Z" fill="#B28D93"/>
<path d="M302.982 140.814C302.819 141.936 302.943 143.082 303.343 144.141C303.744 145.201 304.406 146.138 305.268 146.864C306.259 147.821 307.501 148.469 308.847 148.731C310.192 148.993 311.584 148.857 312.855 148.339" stroke="#001427" stroke-width="1.8" stroke-linecap="round" stroke-linejoin="round"/>
<path d="M285.572 172.636C285.572 172.636 284.453 170.964 288.149 170.128C291.846 169.292 298.119 168.849 297.487 171.407" stroke="#001427" stroke-width="1.8" stroke-linecap="round" stroke-linejoin="round"/>
<path d="M318.594 142.929C318.691 140.322 319.518 138.257 320.296 138.552C321.074 138.847 321.512 144.405 319.663 145.683C317.815 146.962 312.855 140.076 311.882 139.634" stroke="#89555F" stroke-width="1.8" stroke-linecap="round" stroke-linejoin="round"/>
<path d="M321.949 146.274C323.457 145.339 324.964 140.765 325.256 139.781C325.548 138.798 323.7 138.404 322.484 140.814C322.08 141.726 321.521 142.558 320.831 143.273" stroke="#89555F" stroke-width="1.8" stroke-linecap="round" stroke-linejoin="round"/>
<path d="M322.727 145.88C322.967 146.099 323.26 146.25 323.575 146.319C323.891 146.388 324.219 146.372 324.527 146.274C326.034 145.88 327.98 142.831 328.904 141.847C329.828 140.863 328.661 139.585 327.056 140.765C325.791 141.65 324.819 142.585 324.089 143.027" stroke="#89555F" stroke-width="1.8" stroke-linecap="round" stroke-linejoin="round"/>
<path d="M325.937 138.65C325.937 138.65 324.624 136.388 324.138 135.748" stroke="#89555F" stroke-width="1.8" stroke-linecap="round" stroke-linejoin="round"/>
<path d="M289.754 154.537C289.754 154.537 287.031 157.734 286.447 161.57" stroke="#001427" stroke-width="1.8" stroke-linecap="round" stroke-linejoin="round"/>
<path d="M140.743 168.898H123.916C123.582 168.88 123.262 168.756 123 168.544C122.739 168.333 122.549 168.044 122.457 167.718L120.026 157.537C119.983 157.395 119.975 157.245 120.002 157.1C120.029 156.954 120.091 156.818 120.182 156.701C120.272 156.585 120.39 156.493 120.524 156.433C120.657 156.373 120.804 156.347 120.95 156.356H137.777C138.111 156.375 138.431 156.499 138.693 156.711C138.954 156.922 139.144 157.211 139.236 157.537L141.667 167.718C141.71 167.86 141.718 168.01 141.691 168.155C141.664 168.301 141.602 168.437 141.512 168.553C141.421 168.669 141.303 168.761 141.169 168.822C141.036 168.882 140.889 168.908 140.743 168.898Z" fill="#55C855"/>
<path d="M120.269 156.602L129.801 162.013C130.071 162.205 130.394 162.309 130.725 162.309C131.056 162.309 131.379 162.205 131.649 162.013L138.604 156.602" stroke="#001427" stroke-width="1.8" stroke-linecap="round" stroke-linejoin="round"/>
<path d="M371.36 169.833L333.037 167.521C332.821 167.509 332.611 167.447 332.422 167.34C332.233 167.233 332.071 167.083 331.949 166.902C331.827 166.722 331.747 166.515 331.717 166.298C331.686 166.081 331.706 165.86 331.773 165.652L342.472 131.272C342.616 130.837 342.88 130.453 343.234 130.165C343.587 129.877 344.015 129.698 344.466 129.649L384.442 126.698C384.675 126.678 384.909 126.717 385.123 126.811C385.337 126.904 385.525 127.05 385.669 127.236C385.814 127.421 385.911 127.64 385.951 127.872C385.992 128.104 385.975 128.343 385.901 128.567L373.646 168.21C373.51 168.706 373.208 169.14 372.791 169.436C372.374 169.732 371.868 169.872 371.36 169.833Z" fill="#63737A"/>
<path d="M369.95 168.947L331.627 166.636C331.411 166.624 331.2 166.562 331.012 166.455C330.823 166.348 330.661 166.198 330.539 166.017C330.416 165.836 330.337 165.629 330.306 165.413C330.276 165.196 330.295 164.975 330.363 164.767L341.062 130.387C341.206 129.952 341.47 129.567 341.823 129.28C342.177 128.992 342.605 128.813 343.056 128.764L383.032 125.813C383.265 125.793 383.498 125.832 383.712 125.925C383.927 126.019 384.114 126.165 384.259 126.35C384.404 126.536 384.5 126.754 384.541 126.987C384.581 127.219 384.564 127.458 384.491 127.682L372.236 167.324C372.1 167.821 371.797 168.254 371.38 168.55C370.963 168.846 370.458 168.987 369.95 168.947Z" fill="#001427"/>
<path d="M350.302 135.404L343.542 135.748C343.488 135.751 343.434 135.74 343.385 135.717C343.336 135.694 343.292 135.659 343.259 135.616C343.226 135.572 343.203 135.522 343.193 135.468C343.183 135.414 343.186 135.358 343.202 135.306L343.688 133.732C343.726 133.618 343.797 133.519 343.893 133.448C343.989 133.378 344.104 133.339 344.223 133.338L351.032 132.945C351.086 132.942 351.14 132.953 351.189 132.976C351.238 132.999 351.281 133.034 351.315 133.077C351.348 133.121 351.371 133.171 351.381 133.225C351.391 133.279 351.388 133.335 351.372 133.387L350.837 135.01C350.783 135.113 350.707 135.202 350.615 135.27C350.522 135.338 350.415 135.384 350.302 135.404Z" fill="#FFE779"/>
<path d="M336.199 162.111C336.038 162.103 335.881 162.059 335.739 161.981C335.598 161.903 335.475 161.794 335.382 161.661C335.288 161.528 335.226 161.376 335.199 161.215C335.172 161.055 335.181 160.89 335.226 160.734L338.436 150.503C338.5 150.292 338.629 150.108 338.804 149.975C338.978 149.843 339.19 149.769 339.408 149.766C339.572 149.765 339.734 149.804 339.88 149.88C340.025 149.956 340.151 150.065 340.246 150.2C340.342 150.335 340.403 150.491 340.427 150.655C340.45 150.819 340.435 150.986 340.381 151.143L337.171 161.373C337.135 161.6 337.014 161.803 336.832 161.941C336.651 162.078 336.424 162.139 336.199 162.111Z" fill="#FFE779"/>
<path d="M341.013 162.308C340.846 162.303 340.683 162.259 340.536 162.178C340.389 162.098 340.263 161.984 340.168 161.845C340.074 161.705 340.013 161.546 339.99 161.378C339.968 161.211 339.985 161.041 340.041 160.881L345.196 144.306C345.271 144.088 345.408 143.897 345.589 143.757C345.771 143.617 345.989 143.535 346.217 143.519C346.389 143.519 346.558 143.559 346.712 143.636C346.866 143.713 347 143.825 347.103 143.963C347.207 144.101 347.278 144.262 347.309 144.432C347.341 144.603 347.334 144.779 347.287 144.946L342.132 161.521C342.063 161.762 341.915 161.972 341.711 162.115C341.507 162.258 341.261 162.326 341.013 162.308Z" fill="#63737A"/>
<path d="M345.974 162.554C345.803 162.543 345.637 162.493 345.487 162.409C345.338 162.324 345.21 162.207 345.111 162.065C345.013 161.923 344.948 161.761 344.921 161.59C344.893 161.419 344.904 161.244 344.953 161.078L347.092 154.241C347.161 154.01 347.303 153.808 347.496 153.666C347.69 153.524 347.924 153.45 348.162 153.454C348.337 153.46 348.508 153.505 348.662 153.587C348.816 153.669 348.95 153.786 349.053 153.928C349.156 154.071 349.226 154.235 349.257 154.408C349.288 154.582 349.28 154.76 349.232 154.93L347.092 161.767C347.013 162.001 346.862 162.204 346.66 162.345C346.459 162.487 346.219 162.56 345.974 162.554Z" fill="#FFE779"/>
<path d="M351.129 162.75C350.952 162.74 350.779 162.69 350.623 162.603C350.468 162.516 350.334 162.395 350.231 162.249C350.128 162.102 350.059 161.934 350.029 161.757C350 161.58 350.01 161.398 350.059 161.226L356.138 141.65C356.213 141.418 356.355 141.215 356.546 141.066C356.737 140.916 356.967 140.829 357.208 140.814C357.391 140.812 357.573 140.853 357.737 140.936C357.901 141.018 358.044 141.138 358.153 141.287C358.262 141.436 358.335 141.609 358.365 141.792C358.395 141.975 358.382 142.162 358.327 142.339L352.247 161.914C352.187 162.164 352.043 162.385 351.838 162.537C351.634 162.69 351.383 162.766 351.129 162.75Z" fill="#55C855"/>
<path d="M356.43 162.996C356.248 162.982 356.071 162.927 355.912 162.837C355.753 162.746 355.616 162.622 355.509 162.472C355.403 162.322 355.33 162.15 355.296 161.969C355.262 161.788 355.267 161.601 355.311 161.422L359.299 148.536C359.376 148.296 359.525 148.087 359.726 147.937C359.927 147.787 360.168 147.704 360.418 147.7C360.608 147.697 360.795 147.739 360.966 147.824C361.136 147.908 361.285 148.032 361.398 148.186C361.512 148.339 361.589 148.518 361.621 148.707C361.653 148.896 361.641 149.09 361.585 149.274L357.597 162.16C357.515 162.407 357.358 162.621 357.149 162.771C356.939 162.921 356.687 163 356.43 162.996Z" fill="#63737A"/>
<path d="M361.974 163.242C361.785 163.235 361.599 163.183 361.433 163.091C361.267 162.999 361.124 162.87 361.015 162.712C360.907 162.555 360.836 162.374 360.808 162.185C360.78 161.995 360.797 161.801 360.855 161.619L361.682 158.865C361.764 158.605 361.926 158.378 362.145 158.218C362.364 158.059 362.628 157.975 362.898 157.979C363.091 157.982 363.28 158.03 363.451 158.12C363.622 158.21 363.77 158.338 363.883 158.496C363.996 158.653 364.072 158.835 364.103 159.027C364.135 159.22 364.122 159.416 364.065 159.603L363.238 162.357C363.14 162.616 362.967 162.839 362.742 162.997C362.516 163.155 362.248 163.241 361.974 163.242Z" fill="#F4C2C9"/>
<path d="M367.664 163.488C367.47 163.476 367.282 163.42 367.112 163.324C366.942 163.228 366.796 163.095 366.684 162.935C366.572 162.774 366.497 162.59 366.465 162.397C366.432 162.203 366.443 162.005 366.497 161.816L370.631 148.536C370.71 148.27 370.87 148.037 371.088 147.869C371.307 147.701 371.572 147.607 371.846 147.602C372.049 147.599 372.248 147.644 372.43 147.734C372.612 147.823 372.771 147.955 372.893 148.117C373.016 148.279 373.1 148.469 373.138 148.669C373.175 148.87 373.166 149.077 373.111 149.274L368.977 162.554C368.885 162.83 368.708 163.07 368.472 163.238C368.236 163.406 367.953 163.494 367.664 163.488Z" fill="#FFE779"/>
<path d="M373.111 132.945C373.208 132.6 373.062 132.305 372.819 132.305C372.576 132.305 372.236 132.6 372.09 132.994C371.944 133.387 372.138 133.633 372.381 133.633C372.551 133.591 372.707 133.506 372.835 133.385C372.963 133.265 373.058 133.113 373.111 132.945Z" fill="#63737A"/>
<path d="M375.64 132.797C375.737 132.453 375.591 132.158 375.299 132.158C375.126 132.192 374.966 132.274 374.837 132.396C374.708 132.518 374.615 132.674 374.57 132.846C374.473 133.191 374.619 133.486 374.91 133.486C375.08 133.444 375.236 133.358 375.364 133.238C375.492 133.117 375.587 132.965 375.64 132.797Z" fill="#63737A"/>
<path d="M378.217 132.65C378.315 132.305 378.169 132.01 377.877 132.01C377.704 132.044 377.543 132.127 377.414 132.248C377.285 132.37 377.193 132.526 377.148 132.699C377.05 133.043 377.196 133.338 377.488 133.338C377.661 133.304 377.822 133.222 377.951 133.1C378.08 132.978 378.172 132.822 378.217 132.65Z" fill="#63737A"/>
<path d="M226.823 95.2697C226.823 95.2697 223.322 95.4172 222.446 92.1711C221.571 88.9249 224.878 87.4494 224.878 90.4988C224.878 93.5482 220.161 94.8762 218.215 92.3186C216.27 89.761 218.556 87.7937 219.188 89.2692C219.82 90.7447 218.313 93.8433 215.541 92.9088" stroke="#55C855" stroke-width="1.8" stroke-linecap="round" stroke-linejoin="round"/>
<path d="M268.648 100.336C268.648 100.336 274.63 99.9914 274.24 95.614C273.851 91.2366 269.961 99.352 275.164 99.2536C280.368 99.1552 280.076 94.1876 278.52 93.8433C276.964 93.499 277.353 97.3354 280.222 97.0895C283.092 96.8436 283.529 95.0729 283.529 95.0729" stroke="#55C855" stroke-width="1.8" stroke-linecap="round" stroke-linejoin="round"/>
<path d="M248.903 91.8268C248.903 91.496 248.806 91.1727 248.624 90.8977C248.442 90.6227 248.184 90.4084 247.882 90.2818C247.58 90.1552 247.247 90.1221 246.927 90.1866C246.606 90.2512 246.311 90.4104 246.08 90.6443C245.849 90.8782 245.691 91.1762 245.627 91.5005C245.564 91.8249 245.596 92.1612 245.722 92.4667C245.847 92.7723 246.059 93.0335 246.331 93.2172C246.602 93.401 246.922 93.499 247.249 93.499C247.467 93.501 247.683 93.4591 247.884 93.3758C248.086 93.2924 248.269 93.1693 248.423 93.0136C248.577 92.858 248.698 92.6728 248.781 92.469C248.863 92.2653 248.905 92.0469 248.903 91.8268Z" fill="#55C855"/>
<path d="M256.879 73.6778C256.973 75.0092 256.797 76.3459 256.362 77.6061C255.927 78.8663 255.243 80.0234 254.35 81.0063C252.502 83.0278 251.477 85.6803 251.48 88.4331V90.1545C251.475 90.6095 251.294 91.0444 250.976 91.3661C250.658 91.6879 250.228 91.8709 249.778 91.876H244.818C244.368 91.8709 243.938 91.6879 243.62 91.3661C243.301 91.0444 243.12 90.6095 243.115 90.1545V88.4331C243.127 85.6933 242.1 83.0531 240.246 81.0555C238.582 79.255 237.66 76.8801 237.669 74.4156C237.673 71.9027 238.64 69.4891 240.365 67.6805C242.09 65.8719 244.44 64.8085 246.923 64.7132C249.406 64.6178 251.829 65.4978 253.685 67.1689C255.541 68.84 256.685 71.1725 256.879 73.6778Z" fill="#FFE779"/>
<path d="M243.067 88.4331H251.432" stroke="#001427" stroke-width="1.8" stroke-linecap="round" stroke-linejoin="round"/>
<path d="M243.067 90.1053H251.432" stroke="#001427" stroke-width="1.8" stroke-linecap="round" stroke-linejoin="round"/>
<path d="M246.374 88.4331V74.9566C246.372 74.6769 246.296 74.4028 246.152 74.1635C246.009 73.9242 245.804 73.7286 245.56 73.5975C245.316 73.4663 245.041 73.4046 244.764 73.4187C244.488 73.4329 244.221 73.5224 243.991 73.6778V73.6778C243.805 73.8123 243.651 73.9871 243.54 74.1895C243.429 74.3919 243.364 74.6167 243.35 74.8477C243.336 75.0786 243.373 75.3098 243.459 75.5244C243.544 75.7389 243.676 75.9314 243.845 76.0879L244.429 76.6289" stroke="#001427" stroke-width="1.8" stroke-linecap="round" stroke-linejoin="round"/>
<path d="M248.125 88.4331V74.9566C248.126 74.6769 248.203 74.4028 248.346 74.1635C248.489 73.9242 248.694 73.7286 248.938 73.5975C249.183 73.4663 249.458 73.4046 249.734 73.4187C250.01 73.4329 250.278 73.5224 250.508 73.6778C250.694 73.8123 250.848 73.9871 250.959 74.1895C251.07 74.3919 251.134 74.6167 251.148 74.8477C251.162 75.0786 251.125 75.3098 251.04 75.5244C250.954 75.7389 250.822 75.9314 250.654 76.0879L250.07 76.6289" stroke="#001427" stroke-width="1.8" stroke-linecap="round" stroke-linejoin="round"/>
<path d="M208.246 125.567L203.966 85.9247C203.896 85.3443 203.639 84.8034 203.235 84.3856C202.83 83.9678 202.301 83.6963 201.729 83.613L146.239 76.2846C145.943 76.25 145.644 76.2834 145.362 76.3824C145.081 76.4814 144.826 76.6434 144.616 76.8562C144.405 77.0691 144.245 77.3273 144.147 77.6116C144.049 77.8959 144.016 78.1989 144.05 78.4979L149.497 125.764C149.57 126.402 149.874 126.991 150.349 127.418C150.825 127.844 151.439 128.079 152.075 128.075L206.252 127.78C206.533 127.79 206.813 127.737 207.072 127.627C207.332 127.516 207.564 127.349 207.754 127.139C207.943 126.929 208.085 126.679 208.17 126.408C208.255 126.136 208.281 125.85 208.246 125.567Z" fill="#63737A"/>
<path d="M210.726 125.37L206.446 85.4328C206.384 84.8494 206.13 84.304 205.724 83.8846C205.318 83.4652 204.785 83.1963 204.209 83.1212L148.33 75.7436C148.032 75.7076 147.73 75.7397 147.445 75.8374C147.161 75.9352 146.902 76.0962 146.688 76.3085C146.473 76.5209 146.308 76.7792 146.205 77.0644C146.102 77.3497 146.064 77.6546 146.093 77.9568L151.588 125.567C151.662 126.206 151.965 126.795 152.44 127.221C152.916 127.648 153.53 127.882 154.166 127.879L208.781 127.584C209.056 127.58 209.328 127.518 209.578 127.402C209.829 127.286 210.052 127.119 210.235 126.91C210.418 126.702 210.556 126.458 210.641 126.193C210.725 125.927 210.754 125.647 210.726 125.37Z" fill="#001427"/>
<path d="M203.674 121.436H159.224L159.078 119.96L168.464 106.582C169.011 105.786 169.813 105.205 170.734 104.936C171.655 104.667 172.64 104.727 173.522 105.106L177.802 106.877C178.73 107.259 179.763 107.296 180.715 106.981C181.668 106.666 182.48 106.019 183.005 105.156L184.902 102.008C185.413 101.154 186.204 100.509 187.137 100.185C188.071 99.8613 189.087 99.8798 190.008 100.237C190.857 100.576 191.791 100.625 192.669 100.376C193.547 100.127 194.321 99.595 194.872 98.8601L200.708 91.1382L203.674 121.436Z" fill="#FFE779"/>
<path d="M159.078 119.96L155.722 90.548" stroke="#55C855" stroke-width="1.8" stroke-linecap="round" stroke-linejoin="round"/>
<path d="M158.932 118.632L166.567 98.4667C166.753 97.9646 167.036 97.5053 167.4 97.1158C167.764 96.7264 168.201 96.4147 168.686 96.1991C169.172 95.9836 169.694 95.8687 170.224 95.8611C170.754 95.8535 171.28 95.9535 171.771 96.155L175.71 97.7289C176.499 98.0359 177.363 98.0872 178.182 97.8758C179.001 97.6643 179.735 97.2004 180.282 96.5485L182.908 93.3023C183.247 92.8783 183.668 92.5288 184.145 92.2753C184.622 92.0218 185.145 91.8696 185.683 91.8281C186.22 91.7867 186.76 91.8568 187.27 92.0342C187.78 92.2116 188.248 92.4925 188.647 92.8597C189.293 93.4542 190.117 93.8152 190.988 93.8864C191.859 93.9576 192.729 93.7349 193.461 93.2531L200.562 88.679" stroke="#55C855" stroke-width="1.8" stroke-linecap="round" stroke-linejoin="round"/>
<path d="M155.382 86.6624L155.09 84.3016C155.079 84.215 155.088 84.1269 155.115 84.0442C155.143 83.9615 155.189 83.8863 155.251 83.8245C155.312 83.7628 155.386 83.716 155.468 83.6879C155.55 83.6597 155.637 83.6509 155.722 83.6622L166.276 84.7934C166.43 84.8106 166.574 84.8772 166.688 84.9834C166.801 85.0896 166.879 85.2299 166.908 85.3837L167.248 87.5478C167.26 87.615 167.256 87.6843 167.236 87.7495C167.216 87.8148 167.18 87.8742 167.133 87.9225C167.085 87.9709 167.026 88.0068 166.961 88.0272C166.897 88.0476 166.828 88.0518 166.762 88.0396L156.014 87.2526C155.934 87.2573 155.854 87.2456 155.778 87.2182C155.702 87.1908 155.633 87.1483 155.574 87.0932C155.515 87.0381 155.468 86.9716 155.435 86.8976C155.402 86.8236 155.384 86.7436 155.382 86.6624Z" fill="#55C855"/>
<path d="M327.493 109.484C316.259 120.501 302.302 122.665 297.244 115.091C292.77 108.402 297.001 96.4993 306.144 87.8921C315.141 79.4324 327.007 75.9403 333.427 80.4161C340.673 85.4328 338.533 98.6634 327.493 109.484Z" fill="#F8AB5D"/>
<path d="M325.888 107.812C314.654 118.829 300.697 120.993 295.639 113.419C291.165 106.73 295.396 94.827 304.539 86.2198C313.536 77.7601 325.402 74.2681 331.822 78.7438C339.117 83.8098 336.928 97.0403 325.888 107.812Z" fill="#FFE779"/>
<path d="M321.171 103.041C314.411 109.582 305.949 111.205 302.545 106.828C299.432 102.795 301.912 95.1713 307.846 89.5643C313.779 83.9573 321.366 81.8916 325.305 85.0394C329.536 88.3839 327.834 96.5485 321.171 103.041Z" fill="#55C855"/>
<path d="M316.843 98.6634C314.168 101.221 310.764 101.959 309.305 100.336C307.846 98.7126 308.818 95.5648 311.347 93.1547C313.876 90.7447 317.135 89.9578 318.691 91.3841C320.247 92.8105 319.518 96.1058 316.843 98.6634Z" fill="#F4C2C9"/>
<path d="M299.578 82.1375C299.333 82.3678 299.045 82.5468 298.731 82.6641C298.417 82.7814 298.083 82.8347 297.748 82.821C297.414 82.8073 297.085 82.7268 296.782 82.5842C296.478 82.4415 296.205 82.2396 295.979 81.9899L287.323 70.8252C287.107 70.5442 287.002 70.1922 287.029 69.8376C287.056 69.483 287.213 69.1512 287.469 68.907C287.729 68.6695 288.067 68.5381 288.417 68.5381C288.767 68.5381 289.105 68.6695 289.365 68.907L299.675 78.4979C299.917 78.737 300.107 79.024 300.233 79.3408C300.36 79.6577 300.421 79.9975 300.412 80.3391C300.402 80.6808 300.324 81.0168 300.18 81.3262C300.037 81.6357 299.832 81.9119 299.578 82.1375Z" fill="#001427"/>
<path d="M289.317 72.9401L286.545 73.3335C286.373 73.3527 286.21 73.4222 286.076 73.5334C285.943 73.6446 285.844 73.7927 285.793 73.9597C285.741 74.1267 285.739 74.3053 285.786 74.4736C285.833 74.6419 285.928 74.7927 286.058 74.9074C287.763 76.4222 289.851 77.427 292.089 77.8093L293.499 78.0552C293.536 78.0627 293.574 78.0589 293.609 78.0443C293.643 78.0298 293.673 78.0051 293.694 77.9735C293.715 77.9419 293.726 77.9048 293.726 77.8668C293.726 77.8288 293.715 77.7917 293.694 77.7601L290.192 73.2843C290.084 73.16 289.948 73.0637 289.796 73.0038C289.644 72.9439 289.479 72.922 289.317 72.9401Z" fill="#55C855"/>
<path d="M291.359 71.0711L291.991 68.3168C292.03 68.1469 292.116 67.9917 292.239 67.8695C292.362 67.7472 292.517 67.6631 292.685 67.6269C292.854 67.5907 293.029 67.604 293.191 67.6653C293.352 67.7265 293.493 67.8331 293.596 67.9725C294.965 69.8001 295.791 71.9835 295.979 74.2681L296.077 75.6944C296.077 75.8419 295.882 75.9403 295.785 75.8419L291.651 72.0056C291.52 71.8935 291.423 71.7463 291.372 71.5809C291.32 71.4156 291.316 71.2388 291.359 71.0711Z" fill="#55C855"/>
<path d="M299.189 81.6949L301.961 84.6951" stroke="#001427" stroke-width="1.8" stroke-linecap="round" stroke-linejoin="round"/>
<path d="M357.597 107.566V100.385C357.595 100.216 357.527 100.055 357.409 99.9355C357.291 99.8162 357.132 99.748 356.965 99.7454H353.755C353.588 99.748 353.429 99.8162 353.311 99.9355C353.193 100.055 353.125 100.216 353.123 100.385V107.566H351.275C351.166 107.564 351.059 107.592 350.965 107.647C350.87 107.701 350.792 107.78 350.737 107.875C350.683 107.97 350.654 108.078 350.655 108.188C350.655 108.298 350.685 108.406 350.74 108.5L354.776 114.943C354.829 115.033 354.904 115.107 354.993 115.159C355.083 115.211 355.184 115.238 355.287 115.238C355.39 115.238 355.491 115.211 355.581 115.159C355.67 115.107 355.745 115.033 355.798 114.943L359.834 108.5C359.889 108.406 359.919 108.298 359.919 108.188C359.92 108.078 359.891 107.97 359.837 107.875C359.782 107.78 359.704 107.701 359.609 107.647C359.515 107.592 359.408 107.564 359.299 107.566H357.597Z" fill="#55C855"/>
<path d="M371.701 115.337V108.156C371.698 107.987 371.631 107.826 371.513 107.707C371.395 107.587 371.235 107.519 371.068 107.517H367.859C367.692 107.519 367.532 107.587 367.414 107.707C367.296 107.826 367.229 107.987 367.226 108.156V115.337H365.378C365.27 115.336 365.163 115.363 365.068 115.418C364.974 115.472 364.895 115.551 364.841 115.646C364.786 115.741 364.758 115.849 364.758 115.959C364.759 116.069 364.788 116.177 364.843 116.271L368.88 122.714C368.932 122.804 369.007 122.878 369.097 122.93C369.186 122.982 369.287 123.009 369.391 123.009C369.494 123.009 369.595 122.982 369.684 122.93C369.774 122.878 369.849 122.804 369.901 122.714L373.938 116.271C373.993 116.177 374.022 116.069 374.023 115.959C374.023 115.849 373.995 115.741 373.94 115.646C373.886 115.551 373.807 115.472 373.713 115.418C373.618 115.363 373.511 115.336 373.403 115.337H371.701Z" fill="#001427"/>
<path d="M139.382 143.667C139.464 143.341 139.449 142.997 139.338 142.679C139.227 142.362 139.025 142.085 138.758 141.883C138.492 141.682 138.172 141.565 137.839 141.547C137.507 141.529 137.177 141.612 136.89 141.784C136.604 141.956 136.375 142.211 136.232 142.515C136.089 142.819 136.038 143.159 136.086 143.492C136.134 143.825 136.279 144.137 136.502 144.387C136.725 144.637 137.016 144.814 137.339 144.896C137.553 144.953 137.776 144.966 137.995 144.935C138.214 144.904 138.425 144.829 138.615 144.714C138.805 144.6 138.971 144.448 139.102 144.268C139.234 144.089 139.329 143.884 139.382 143.667Z" fill="#001427"/>
<path d="M141.424 139.634L141.521 139.191C141.698 138.5 141.598 137.766 141.243 137.149C140.888 136.532 140.306 136.082 139.625 135.896C138.941 135.717 138.216 135.818 137.606 136.177C136.996 136.536 136.55 137.125 136.366 137.814L136.269 138.257C136.124 138.747 135.875 139.2 135.54 139.585C135.248 139.88 134.956 140.224 134.664 140.519C134.523 140.679 134.423 140.872 134.376 141.082C134.328 141.291 134.334 141.509 134.392 141.715C134.45 141.921 134.559 142.109 134.709 142.262C134.859 142.414 135.044 142.525 135.248 142.585L137.679 143.224L140.111 143.864C140.315 143.918 140.53 143.918 140.734 143.865C140.938 143.811 141.125 143.704 141.277 143.556C141.428 143.408 141.539 143.222 141.599 143.017C141.659 142.813 141.666 142.596 141.619 142.388C141.521 141.945 141.424 141.503 141.327 141.109C141.264 140.616 141.297 140.114 141.424 139.634Z" fill="#55C855"/>
<path d="M94.299 121.682C94.299 121.682 112.488 117.501 112.196 107.762L140.014 109.976C140.014 109.976 139.673 121.927 121.533 128.026C121.485 128.026 102.178 125.42 94.299 121.682Z" fill="#FFE779"/>
<path d="M117.594 121.239L122.506 121.927" stroke="#001427" stroke-width="1.8" stroke-linecap="round" stroke-linejoin="round"/>
<path d="M119.637 119.272L125.327 120.058" stroke="#001427" stroke-width="1.8" stroke-linecap="round" stroke-linejoin="round"/>
<path d="M114.773 114.55C114.773 114.55 127.321 116.32 129.558 116.616" stroke="#001427" stroke-width="1.8" stroke-linecap="round" stroke-linejoin="round"/>
<path d="M117.011 117.599C115.713 119.466 113.929 120.93 111.855 121.829C111.73 121.872 111.598 121.889 111.466 121.878C109.57 121.485 107.624 121.042 105.776 120.55C105.718 120.537 105.665 120.506 105.626 120.46C105.587 120.415 105.562 120.358 105.557 120.298C105.552 120.238 105.565 120.177 105.596 120.125C105.627 120.074 105.673 120.033 105.728 120.009C107.791 119.127 109.709 117.933 111.418 116.468C111.478 116.401 111.555 116.351 111.64 116.325C111.726 116.299 111.817 116.297 111.904 116.32C112.925 116.517 114.676 116.763 116.816 117.107C117.011 117.206 117.156 117.452 117.011 117.599Z" fill="#001427"/>
<path d="M125.278 111.992C125.182 112.444 125.052 112.888 124.889 113.32C124.86 113.409 124.799 113.484 124.718 113.53C124.637 113.575 124.542 113.588 124.451 113.566L114.968 112.533C114.902 112.526 114.84 112.504 114.784 112.468C114.729 112.432 114.683 112.383 114.65 112.326C114.616 112.268 114.597 112.204 114.593 112.137C114.589 112.071 114.601 112.004 114.628 111.943C114.776 111.598 114.874 111.234 114.919 110.861C114.949 110.765 115.007 110.681 115.085 110.62C115.163 110.558 115.258 110.522 115.357 110.517L124.889 111.402C125.132 111.55 125.327 111.746 125.278 111.992Z" fill="#55C855"/>
<path d="M290.387 126.895C288.49 131.076 283.918 133.83 280.806 132.994C278.082 132.256 277.547 128.961 279.298 125.715C280.952 122.567 284.405 120.108 287.323 120.009C290.581 119.96 292.186 122.96 290.387 126.895Z" fill="#F8AB5D"/>
<path d="M289.414 126.059C287.517 130.24 282.946 132.994 279.833 132.158C277.11 131.42 276.575 128.125 278.326 124.879C279.979 121.731 283.432 119.272 286.35 119.173C289.657 119.075 291.213 122.075 289.414 126.059Z" fill="#FFE779"/>
<path d="M287.858 125.911C286.399 129.01 283.043 131.125 280.66 130.584C278.52 130.092 278.034 127.584 279.396 124.977C280.709 122.518 283.432 120.55 285.669 120.55C288.149 120.55 289.268 122.911 287.858 125.911Z" fill="#F8AB5D"/>
<path d="M281.389 128.567L281.584 128.223C281.633 128.076 281.633 127.977 281.535 127.928C281.328 127.867 281.143 127.748 281 127.584C280.952 127.534 280.952 127.387 281.049 127.239L281.098 127.19C281.195 127.043 281.389 126.993 281.438 127.092C281.575 127.23 281.743 127.334 281.928 127.393C282.112 127.452 282.308 127.465 282.499 127.431C282.69 127.397 282.87 127.318 283.024 127.199C283.178 127.08 283.301 126.925 283.383 126.748C283.439 126.658 283.475 126.558 283.491 126.454C283.506 126.35 283.5 126.243 283.472 126.142C283.445 126.04 283.397 125.945 283.331 125.863C283.266 125.781 283.184 125.714 283.092 125.665C282.557 125.272 282.313 124.829 282.703 124.141C282.855 123.846 283.069 123.588 283.329 123.384C283.589 123.181 283.89 123.036 284.21 122.96C284.277 122.951 284.339 122.923 284.391 122.879C284.442 122.836 284.481 122.779 284.502 122.714L284.697 122.37C284.727 122.303 284.775 122.245 284.835 122.202C284.894 122.159 284.964 122.132 285.037 122.124C285.134 122.124 285.183 122.223 285.134 122.37L284.988 122.665C284.94 122.813 284.94 122.911 285.086 122.911C285.258 122.947 285.423 123.013 285.572 123.108C285.669 123.157 285.621 123.305 285.523 123.452L285.475 123.501C285.434 123.565 285.375 123.614 285.304 123.641C285.234 123.668 285.157 123.67 285.086 123.649C284.9 123.518 284.679 123.45 284.453 123.452C284.231 123.431 284.008 123.482 283.816 123.597C283.624 123.712 283.473 123.885 283.383 124.092C283.189 124.485 283.335 124.731 283.772 125.075C283.911 125.156 284.031 125.265 284.124 125.396C284.217 125.527 284.282 125.676 284.314 125.834C284.347 125.992 284.345 126.155 284.311 126.313C284.276 126.47 284.208 126.618 284.113 126.748C283.961 127.081 283.732 127.372 283.443 127.595C283.155 127.818 282.817 127.966 282.459 128.026C282.393 128.036 282.33 128.064 282.279 128.107C282.227 128.151 282.189 128.208 282.168 128.272L281.973 128.666C281.938 128.73 281.889 128.785 281.83 128.828C281.771 128.87 281.704 128.899 281.633 128.912C281.341 128.813 281.292 128.715 281.389 128.567Z" fill="#FFE779"/>
<path d="M133.886 198.901H129.12L128.877 207.655H133.448L133.886 198.901Z" fill="#55C855"/>
<path d="M128.877 207.655L126.008 295.793C125.996 296.012 126.029 296.23 126.105 296.435C126.181 296.64 126.298 296.827 126.449 296.984C126.6 297.141 126.781 297.265 126.981 297.348C127.181 297.431 127.396 297.471 127.613 297.466C128.022 297.468 128.417 297.311 128.716 297.027C129.014 296.743 129.194 296.355 129.217 295.941L133.448 207.655H128.877Z" fill="#B0D7C0"/>
<path d="M370.387 198.901H365.67L366.059 207.655H370.679L370.387 198.901Z" fill="#55C855"/>
<path d="M366.059 207.655L370.29 295.941C370.31 296.371 370.497 296.776 370.812 297.067C371.127 297.358 371.542 297.51 371.968 297.49C372.394 297.471 372.794 297.281 373.082 296.963C373.369 296.644 373.519 296.224 373.5 295.793L370.631 207.655H366.059Z" fill="#B0D7C0"/>
<path d="M146.579 186.949L143.905 269.824C143.895 270.01 143.924 270.195 143.988 270.369C144.053 270.544 144.152 270.702 144.279 270.836C144.407 270.97 144.561 271.076 144.73 271.147C144.9 271.218 145.082 271.253 145.266 271.25C145.62 271.253 145.96 271.116 146.215 270.867C146.47 270.619 146.618 270.28 146.628 269.923L150.616 186.949H146.579Z" fill="#B0D7C0"/>
<path d="M352.928 186.949L355.603 269.824C355.612 270.01 355.584 270.195 355.52 270.369C355.455 270.544 355.356 270.702 355.228 270.836C355.101 270.97 354.947 271.076 354.777 271.147C354.608 271.218 354.425 271.253 354.241 271.25C353.888 271.253 353.547 271.116 353.293 270.867C353.038 270.619 352.89 270.28 352.88 269.923L348.892 186.949H352.928Z" fill="#B0D7C0"/>
<path d="M383.859 197.032H115.649L143.759 183.506H355.798L383.859 197.032Z" fill="white"/>
<path d="M383.859 197.032H115.649V200.72H383.859V197.032Z" fill="#B0D7C0"/>
<path d="M335.469 183.949C335.469 183.949 333.183 182.817 332.405 180.555C331.627 178.292 332.989 176.768 333.572 176.915C334.156 177.063 335.031 179.916 335.761 179.916C336.49 179.916 336.344 174.899 337.803 174.358C339.262 173.817 339.117 179.325 339.165 179.768C339.262 180.899 341.159 178.44 341.84 177.456C342.667 176.227 345.342 180.653 339.749 183.949C338.334 184.206 336.884 184.206 335.469 183.949Z" fill="#55C855"/>
<path d="M344.904 184.49V184.686C344.839 187.614 344.28 190.508 343.25 193.244C343.157 193.469 343.002 193.663 342.804 193.802C342.606 193.941 342.373 194.021 342.132 194.031H333.378C333.135 194.03 332.897 193.954 332.698 193.814C332.498 193.673 332.345 193.475 332.259 193.244C331.226 190.509 330.666 187.614 330.606 184.686V184.49C330.602 184.366 330.623 184.242 330.668 184.127C330.713 184.012 330.781 183.907 330.867 183.82C330.954 183.732 331.058 183.663 331.172 183.618C331.285 183.572 331.407 183.551 331.53 183.555H343.98C344.103 183.546 344.227 183.565 344.343 183.608C344.46 183.652 344.565 183.721 344.652 183.809C344.74 183.898 344.808 184.005 344.851 184.122C344.895 184.239 344.913 184.365 344.904 184.49Z" fill="#001427"/>
<path d="M312.028 180.85C308.235 181.244 307.262 191.621 300.064 192.654C300.064 192.654 298.751 192.703 296.612 192.753C290.435 192.949 277.693 193.244 272.538 192.802C273.286 192.797 274.033 192.748 274.775 192.654C277.013 192.359 278.617 191.13 279.93 189.654C282.848 186.211 284.162 181.145 286.739 180.899H312.028V180.85Z" fill="#001427"/>
<path d="M279.882 189.654C278.604 191.282 276.76 192.355 274.727 192.654C273.985 192.749 273.238 192.798 272.49 192.802C267.043 192.802 265.438 189.752 265.438 189.752C265.438 189.752 274.143 190.146 279.882 189.654Z" fill="#55C855"/>
<path d="M243.115 193.835H207.808V191.179H245.742C245.743 191.528 245.676 191.874 245.544 192.197C245.413 192.519 245.219 192.813 244.975 193.06C244.731 193.307 244.441 193.502 244.122 193.635C243.803 193.768 243.461 193.836 243.115 193.835Z" fill="#001427"/>
<path d="M215.395 193.835H160.975C160.116 193.83 159.283 193.538 158.606 193.004C157.928 192.47 157.445 191.725 157.23 190.884L148.281 154.832C148.205 154.517 148.2 154.19 148.267 153.873C148.334 153.556 148.47 153.259 148.667 153.004C148.863 152.748 149.115 152.541 149.402 152.397C149.689 152.254 150.004 152.178 150.324 152.176H204.744C205.603 152.181 206.436 152.473 207.113 153.007C207.791 153.54 208.274 154.286 208.489 155.127L217.437 191.179C217.519 191.493 217.527 191.823 217.463 192.142C217.398 192.46 217.261 192.76 217.064 193.016C216.866 193.273 216.613 193.481 216.324 193.622C216.034 193.764 215.716 193.837 215.395 193.835Z" fill="#001427"/>
<path d="M183.246 176.12C184.533 174.624 183.984 172.009 182.019 170.279C180.055 168.549 177.418 168.358 176.13 169.853C174.843 171.349 175.392 173.964 177.357 175.694C179.321 177.425 181.958 177.615 183.246 176.12Z" fill="#63737A"/>
<path d="M246.082 188.523H234.556C234.286 188.522 234.027 188.412 233.835 188.219C233.644 188.025 233.536 187.763 233.535 187.49C233.539 186.069 234.098 184.708 235.092 183.703C236.085 182.699 237.431 182.133 238.836 182.129H241.754C243.158 182.133 244.505 182.699 245.498 183.703C246.491 184.708 247.051 186.069 247.055 187.49C247.061 187.623 247.041 187.756 246.995 187.882C246.949 188.007 246.879 188.121 246.788 188.218C246.697 188.314 246.587 188.391 246.466 188.444C246.345 188.496 246.214 188.523 246.082 188.523Z" fill="#001427"/>
<path d="M316.308 189.703C315.238 189.506 313.487 188.965 312.904 186.998C312.32 185.031 316.745 180.752 318.107 180.752C319.469 180.752 321.949 182.129 323.262 183.998C324.575 185.867 322.144 187.047 322.436 187.933C322.727 188.818 320.004 190.441 316.308 189.703Z" fill="white" stroke="#B0D7C0" stroke-width="1.8" stroke-linecap="round" stroke-linejoin="round"/>
<path d="M312.904 186.998C312.904 186.998 315.189 188.67 316.259 188.178C317.329 187.687 318.156 186.31 320.053 186.506C321.949 186.703 321.56 183.358 320.053 182.817C318.545 182.276 317.475 185.719 316.259 185.768C315.043 185.818 314.752 185.031 315.87 184.145" fill="white"/>
<path d="M312.904 186.998C312.904 186.998 315.189 188.67 316.259 188.178C317.329 187.687 318.156 186.31 320.053 186.506C321.949 186.703 321.56 183.358 320.053 182.817C318.545 182.276 317.475 185.719 316.259 185.768C315.043 185.818 314.752 185.031 315.87 184.145" stroke="#B0D7C0" stroke-width="1.8" stroke-linecap="round" stroke-linejoin="round"/>
<path d="M310.618 192.753C310.618 192.753 311.834 191.326 311.299 190.539C310.764 189.752 310.326 189.506 310.083 189.064C309.742 188.375 309.791 186.9 309.013 186.162C308.235 185.424 306.97 186.605 304.052 186.211C301.815 185.916 299.773 189.408 300.551 190.392C300.839 190.843 301.201 191.242 301.621 191.572C301.621 191.572 301.183 192.458 301.426 192.999C301.669 193.54 303.371 194.327 305.949 194.572C308.527 194.818 310.618 192.753 310.618 192.753Z" fill="white" stroke="#B0D7C0" stroke-width="1.8" stroke-linecap="round" stroke-linejoin="round"/>
<path d="M301.621 191.621C301.621 191.621 303.955 193.441 305.609 193.048C307.262 192.654 308.867 189.605 308.77 188.769C308.672 187.933 307.992 187.539 306.338 189.064C304.685 190.589 303.42 190.195 303.566 188.867" fill="white"/>
<path d="M301.621 191.621C301.621 191.621 303.955 193.441 305.609 193.048C307.262 192.654 308.867 189.605 308.77 188.769C308.672 187.933 307.992 187.539 306.338 189.064C304.685 190.589 303.42 190.195 303.566 188.867" stroke="#B0D7C0" stroke-width="1.8" stroke-linecap="round" stroke-linejoin="round"/>
</g>
<defs>
<clipPath id="clip0_2_181">
<rect width="498" height="377.734" fill="white"/>
</clipPath>
</defs>
</svg>
